<svg width="104" height="114"
  xmlns="http://www.w3.org/2000/svg">
  <g fill="none" fill-rule="evenodd">
    <path d="M1.915 74.517c-.17-.023-.235-.123-.445.035 0 0-.105.08-.146.258-.393.6-.304.98.022 1.486 2.662 2.2 5.283 4.578 7.8 7.036 5.254 5.5 10.233 11.057 14.897 16.851 2.136 2.594 4.168 5.267 6.305 7.861l.065.101c.156.484.35.786.376 1.068.3.224.535.348.835.571l.586.911.21-.158c-.105.079-.04.179.13.202 1.381 1.662 2.817 2.682 4.436 3.261.356-.417.54-.856.28-1.26.264-.801.213-1.365.268-2.006l.21-.158c.17.022.445-.035.445-.035-.091-.384-.116-.664-.14-.946-.442-1.17-.988-2.26-1.6-3.452l-.78-1.212c-.43-.427-.755-.932-1.185-1.359 2.556 2.277 5.257 4.295 8.208 5.975 0 0 .21-.159.145-.26 0 0 .04-.18.145-.26-1.891-1.727-3.783-3.456-5.569-5.262 1.816.884 3.841 1.61 5.906 2.154-.13-.202-.26-.404-.43-.426-1.03-.875-2.166-1.67-3.236-2.365-4.152-2.577-8.094-5.312-11.786-8.384-.755-.932-1.34-1.842-2.097-2.774 11.392 4.623 23.907 6.149 37.623 4.213 19.055-2.358 31.034-13.048 36.042-32.148 2.437-9.049 3.724-18.432 4.056-27.845.619-13.085-2.93-23.927-10.476-32.505l-1.7-.22c-1.06.049-1.884.22-2.854.652-.275.057-.59.294-.944.712-.756-.932-1.406-1.943-2.122-3.056-.81-.29-1.515-.66-2.326-.95-.04.181-.144.26-.144.26-.146.259-.185.44-.12.541a62.95 62.95 0 013.46 6.101c3.81 6.89 6.23 14.528 7.512 22.574.011.743-.043 1.385-.033 2.128C92.15 20.26 87.736 9.77 80.544.775c-.105.079-.274.058-.38.137l-.524.396c.026.281.156.483.22.585a225.302 225.302 0 015.77 11.87c3.35 7.387 5.352 15.34 5.874 23.659.277 3.095.215 6.147.218 9.299a135.663 135.663 0 01-.655 7.702c-1.085 4.125-2.342 8.228-3.833 12.207-5.082 13.899-14.905 21.159-29.532 21.679-14.562.621-26.623-3.348-36.014-11.886 7.458-.52 14.58-2.287 21.681-5.543 4.468-2.017 8.31-4.767 11.672-8.503.977-2.84.84-4.99-.41-6.45l-.105.079.17.022-.735.554c-1.55 1.468-3.057 2.757-4.566 4.045l-.734.554c1.928-1.605 3.687-3.231 5.419-5.14.04-.18.055-.642.03-.923-.17-.022-.235-.123-.3-.224l-.276.056a118.375 118.375 0 00-7.643 5.317 40.068 40.068 0 01-4.497 2.942c-7.445 4.415-15.277 7.019-23.47 8.091-3.154.428-6.413.934-9.567 1.36-2.08-.084-4.12-.346-6.33-.633-.34-.043-.85-.11-1.254-.254.14.946.556 1.834 1.142 2.744" fill="#AC8AAF"/>
  </g>
</svg>