<svg xmlns="http://www.w3.org/2000/svg" width="40" height="40" viewBox="0 0 40 40">
    <g fill="none" fill-rule="evenodd">
        <path class="bg" d="M20 0c11.046 0 20 8.954 20 20v20H20C8.954 40 0 31.046 0 20S8.954 0 20 0z"/>
        <path class="check" fill-rule="nonzero" d="M17.708 30.319c.358 0 .651-.13.88-.39L32.99 15.572c.228-.228.342-.52.342-.879 0-.358-.114-.651-.342-.879l-1.806-1.758c-.228-.26-.513-.39-.855-.39-.341 0-.643.13-.903.39L17.708 23.776l-5.468-5.469c-.26-.26-.562-.39-.904-.39-.342 0-.626.13-.854.39l-1.807 1.758c-.228.228-.342.52-.342.879 0 .358.114.651.342.879l8.154 8.105c.228.26.521.391.88.391z"/>
    </g>
</svg>
