<?xml version="1.0" encoding="UTF-8"?>
<svg width="42px" height="42px" viewBox="0 0 42 42" version="1.1" 
    xmlns="http://www.w3.org/2000/svg" 
    xmlns:xlink="http://www.w3.org/1999/xlink">
    <g id="Design" stroke="none" stroke-width="1" fill="none" fill-rule="evenodd">
        <path d="M29.0604995,40.9941321 C32.3560353,40.8380598 35.2751511,40.0853093 37.6802414,37.6710752 C40.0852421,35.2659849 40.8379926,32.3468691 41.0032086,29.0513333 C41.1960354,25.654857 41.1960354,15.4838055 41.0032086,12.0873292 C40.847226,8.79179337 40.0944755,5.87267763 37.6802414,3.46758731 C35.2751511,1.06258664 32.3560353,0.309836126 29.0604995,0.144620074 C25.6640232,-0.0482066912 15.4837382,-0.0482066912 12.0872619,0.144620074 C8.80095958,0.300602673 5.88184385,1.05335318 3.46760972,3.4584435 C1.05337559,5.86353382 0.309768892,8.78264956 0.14455284,12.0781854 C-0.04818428,15.4746616 -0.04818428,25.654857 0.14455284,29.0513333 C0.300625084,32.3468691 1.05337559,35.2659849 3.46760972,37.6710752 C5.88184385,40.0761655 8.79181578,40.8288264 12.0872619,40.9941321 C15.4837382,41.1868692 25.6640232,41.1868692 29.0604995,40.9941321 Z M20.5784526,37.4323501 C17.5859175,37.4323501 11.1510078,37.6710752 8.45215022,36.6061802 C6.65297162,35.8901842 5.26678832,34.5040905 4.54164853,32.6956785 C3.46760972,29.9876771 3.71547862,23.5619112 3.71547862,20.5693761 C3.71547862,17.5767513 3.47675353,11.1418416 4.54164853,8.442984 C5.25764452,6.6438054 6.64373817,5.2576221 8.45215022,4.53248231 C11.0667722,3.49547932 17.1471819,3.69078982 20.2569263,3.70549257 L20.5784526,3.7063124 C23.5710774,3.7063124 30.0059872,3.46758731 32.7048447,4.53248231 C34.5040233,5.2484783 35.8902066,6.63457195 36.6153464,8.442984 C37.6893852,11.1509854 37.4415163,17.5767513 37.4415163,20.5693761 C37.4415163,23.5619112 37.6893852,29.9968209 36.6153464,32.6956785 C35.8993504,34.4948571 34.5132568,35.8810404 32.7048447,36.6061802 C29.9968433,37.680219 23.5710774,37.4323501 20.5784526,37.4323501 Z M31.5573865,12.0505747 C32.9159591,12.0505747 34.017519,10.9582482 34.017519,9.5904422 C34.017519,8.23186962 32.9159591,7.13030975 31.5573865,7.13030975 C30.1988139,7.13030975 29.097254,8.23186962 29.097254,9.5904422 C29.097254,10.9490148 30.1895805,12.0505747 31.5573865,12.0505747 Z M20.5784526,31.1167581 C26.4167738,31.1167581 31.1259243,26.4076075 31.1259243,20.5693761 C31.1259243,14.7310549 26.4167738,10.0219044 20.5784526,10.0219044 C14.7402212,10.0219044 10.0310706,14.7310549 10.0310706,20.5693761 C10.0310706,26.4076075 14.7402212,31.1167581 20.5784526,31.1167581 Z M20.5784526,27.4265146 C16.8056459,27.4265146 13.7213141,24.3513266 13.7213141,20.5693761 C13.7213141,16.7873359 16.7965021,13.7121479 20.5784526,13.7121479 C24.3604928,13.7121479 27.4356808,16.7873359 27.4356808,20.5693761 C27.4356808,24.3513266 24.351349,27.4265146 20.5784526,27.4265146 Z" id="i" fill="#4D0051" fill-rule="nonzero"></path>
    </g>
</svg>