<svg id="Layer_1" data-name="Layer 1" xmlns="http://www.w3.org/2000/svg" viewbox="0 0 21.02 25.55">
	<g fill="#fff">
		<path class="cls-3" d="M719.78 543.74a3.67 3.67 0 01-1-.16c-7.24-2.17-11.39-6.41-13.89-14.17a2.39 2.39 0 01.64-2.86 2.52 2.52 0 00.27-.18 4.51 4.51 0 012.33-.94 2.64 2.64 0 012.54 1.52 8 8 0 01.34.78c0 .15.11.3.17.45a2.4 2.4 0 01-.42 2.45l-.14.16c-.19.22-.07.71.17 1.39a11.74 11.74 0 005.14 5.63 1.23 1.23 0 001.31.09l.1-.1a2.31 2.31 0 012.41-.61c.17.06.33.14.5.21l.8.34a2.5 2.5 0 011.61 2.56 7.92 7.92 0 01-1 2.56 1.94 1.94 0 01-1.79.88m-11.57-17.23h-.09a3.5 3.5 0 00-1.76.76c-.12.07-.22.15-.32.2-.28.17-.44.79-.17 1.61 2.37 7.38 6.31 11.41 13.17 13.47.79.23 1.43.07 1.6-.22a7.65 7.65 0 00.91-2.2 1.44 1.44 0 00-.95-1.39c-.34-.13-.6-.25-.84-.35l-.47-.21a1.25 1.25 0 00-1.23.38l-.15.14a2.18 2.18 0 01-2.54.06 12.8 12.8 0 01-5.65-6.22c-.24-.68-.61-1.72 0-2.46l.06-.08.48.28-.41-.35a1.36 1.36 0 00.26-1.32c-.07-.16-.14-.33-.2-.5a6.36 6.36 0 00-.28-.65 1.58 1.58 0 00-1.46-1" transform="translate(-704.65 -525.43)" />
		<path class="cls-3" d="M712.05 551a.54.54 0 01-.54-.54c0-2.73 1.58-4.29 4.35-4.29a8.29 8.29 0 014.62 1.87 12.3 12.3 0 001.4.87 1.91 1.91 0 002.37-1c.75-1.27.43-3.4-2.73-5.57a.54.54 0 01.61-.89c3.77 2.59 4 5.32 3 7a3 3 0 01-3.78 1.38 16.62 16.62 0 01-1.52-.94 7.42 7.42 0 00-4-1.69c-2.17 0-3.28 1.08-3.28 3.21a.54.54 0 01-.53.54" transform="translate(-704.65 -525.43)" />
	</g>
</svg>
